# MagicaVoxel @ Ephtracy

# group
g CLP4G

# material
mtllib CLP4G.mtl
usemtl palette

# normals
vn -1 0 0
vn 1 0 0
vn 0 0 1
vn 0 0 -1
vn 0 -1 0
vn 0 1 0

# texcoords
vt 0.00195313 0.5
vt 0.673828 0.5
vt 0.876953 0.5
vt 0.986328 0.5
vt 0.990234 0.5
vt 0.994141 0.5

# verts
v -27 1 5.5
v -27 1 -5.5
v -27 2 4.5
v -27 2 -4.5
v -27 19 4.5
v -27 19 -4.5
v -27 20 5.5
v -27 20 -5.5
v -26 0 5.5
v -26 0 -5.5
v -26 1 5.5
v -26 1 -5.5
v 0 18 5.5
v 0 18 4.5
v 0 18 -4.5
v 0 18 -5.5
v 0 19 5.5
v 0 19 4.5
v 0 19 -4.5
v 0 19 -5.5
v 8 18 5.5
v 8 18 4.5
v 8 18 -4.5
v 8 18 -5.5
v 8 19 5.5
v 8 19 4.5
v 8 19 -4.5
v 8 19 -5.5
v 16 18 5.5
v 16 18 4.5
v 16 18 -4.5
v 16 18 -5.5
v 16 19 5.5
v 16 19 4.5
v 16 19 -4.5
v 16 19 -5.5
v 26 2 3.5
v 26 2 2.5
v 26 2 -2.5
v 26 2 -3.5
v 26 5 3.5
v 26 5 2.5
v 26 5 -2.5
v 26 5 -3.5
v -3 18 5.5
v -3 18 4.5
v -3 18 -4.5
v -3 18 -5.5
v -3 19 5.5
v -3 19 4.5
v -3 19 -4.5
v -3 19 -5.5
v 5 18 5.5
v 5 18 4.5
v 5 18 -4.5
v 5 18 -5.5
v 5 19 5.5
v 5 19 4.5
v 5 19 -4.5
v 5 19 -5.5
v 13 18 5.5
v 13 18 4.5
v 13 18 -4.5
v 13 18 -5.5
v 13 19 5.5
v 13 19 4.5
v 13 19 -4.5
v 13 19 -5.5
v 22 2 0.5
v 22 2 -0.5
v 22 8 0.5
v 22 8 -0.5
v 23 2 1.5
v 23 2 0.5
v 23 2 -0.5
v 23 2 -1.5
v 23 8 1.5
v 23 8 0.5
v 23 8 -0.5
v 23 8 -1.5
v 23 13 0.5
v 23 13 -0.5
v 24 2 2.5
v 24 2 1.5
v 24 2 -1.5
v 24 2 -2.5
v 24 8 2.5
v 24 8 1.5
v 24 8 0.5
v 24 8 -0.5
v 24 8 -1.5
v 24 8 -2.5
v 24 13 1.5
v 24 13 0.5
v 24 13 -0.5
v 24 13 -1.5
v 24 18 0.5
v 24 18 -0.5
v 25 2 3.5
v 25 2 2.5
v 25 2 -2.5
v 25 2 -3.5
v 25 8 3.5
v 25 8 2.5
v 25 8 1.5
v 25 8 -1.5
v 25 8 -2.5
v 25 8 -3.5
v 25 13 2.5
v 25 13 1.5
v 25 13 0.5
v 25 13 -0.5
v 25 13 -1.5
v 25 13 -2.5
v 25 18 1.5
v 25 18 0.5
v 25 18 -0.5
v 25 18 -1.5
v 26 8 3.5
v 26 8 2.5
v 26 8 -2.5
v 26 8 -3.5
v 26 13 3.5
v 26 13 2.5
v 26 13 1.5
v 26 13 -1.5
v 26 13 -2.5
v 26 13 -3.5
v 26 18 2.5
v 26 18 1.5
v 26 18 -1.5
v 26 18 -2.5
v 27 0 5.5
v 27 0 -5.5
v 27 2 5.5
v 27 2 3.5
v 27 2 2.5
v 27 2 -2.5
v 27 2 -3.5
v 27 2 -5.5
v 27 4 5.5
v 27 4 3.5
v 27 4 -3.5
v 27 4 -5.5
v 27 5 3.5
v 27 5 2.5
v 27 5 -2.5
v 27 5 -3.5
v 27 13 3.5
v 27 13 2.5
v 27 13 -2.5
v 27 13 -3.5
v 27 18 3.5
v 27 18 2.5
v 27 18 -2.5
v 27 18 -3.5
v 27 19 5.5
v 27 19 -5.5
v 27 20 5.5
v 27 20 -5.5
v -27 1 5.5
v -27 20 5.5
v -26 0 5.5
v -26 1 5.5
v -26 19 5.5
v -9 19 5.5
v -9 20 5.5
v -8 18 5.5
v -8 19 5.5
v -7 19 5.5
v -7 20 5.5
v -3 18 5.5
v -3 19 5.5
v 0 18 5.5
v 0 19 5.5
v 5 18 5.5
v 5 19 5.5
v 8 18 5.5
v 8 19 5.5
v 13 18 5.5
v 13 19 5.5
v 16 18 5.5
v 16 19 5.5
v 24 0 5.5
v 24 1 5.5
v 25 0 5.5
v 25 18 5.5
v 26 0 5.5
v 26 2 5.5
v 26 4 5.5
v 26 19 5.5
v 26 20 5.5
v 27 0 5.5
v 27 2 5.5
v 27 4 5.5
v 27 19 5.5
v 27 20 5.5
v -3 18 4.5
v -3 19 4.5
v 0 18 4.5
v 0 19 4.5
v 5 18 4.5
v 5 19 4.5
v 8 18 4.5
v 8 19 4.5
v 13 18 4.5
v 13 19 4.5
v 16 18 4.5
v 16 19 4.5
v 22 2 -0.5
v 22 8 -0.5
v 23 2 -0.5
v 23 8 -0.5
v 23 13 -0.5
v 24 8 -0.5
v 24 13 -0.5
v 24 18 -0.5
v 25 13 -0.5
v 25 18 -0.5
v 23 2 -1.5
v 23 8 -1.5
v 24 2 -1.5
v 24 8 -1.5
v 24 13 -1.5
v 25 8 -1.5
v 25 13 -1.5
v 25 18 -1.5
v 26 13 -1.5
v 26 18 -1.5
v 24 2 -2.5
v 24 8 -2.5
v 25 2 -2.5
v 25 8 -2.5
v 25 13 -2.5
v 26 2 -2.5
v 26 5 -2.5
v 26 8 -2.5
v 26 13 -2.5
v 26 18 -2.5
v 27 2 -2.5
v 27 5 -2.5
v 27 13 -2.5
v 27 18 -2.5
v 25 2 -3.5
v 25 8 -3.5
v 26 2 -3.5
v 26 5 -3.5
v 26 8 -3.5
v 26 13 -3.5
v 27 5 -3.5
v 27 13 -3.5
v 25 2 3.5
v 25 8 3.5
v 26 2 3.5
v 26 5 3.5
v 26 8 3.5
v 26 13 3.5
v 27 5 3.5
v 27 13 3.5
v 24 2 2.5
v 24 8 2.5
v 25 2 2.5
v 25 8 2.5
v 25 13 2.5
v 26 2 2.5
v 26 5 2.5
v 26 8 2.5
v 26 13 2.5
v 26 18 2.5
v 27 2 2.5
v 27 5 2.5
v 27 13 2.5
v 27 18 2.5
v 23 2 1.5
v 23 8 1.5
v 24 2 1.5
v 24 8 1.5
v 24 13 1.5
v 25 8 1.5
v 25 13 1.5
v 25 18 1.5
v 26 13 1.5
v 26 18 1.5
v 22 2 0.5
v 22 8 0.5
v 23 2 0.5
v 23 8 0.5
v 23 13 0.5
v 24 8 0.5
v 24 13 0.5
v 24 18 0.5
v 25 13 0.5
v 25 18 0.5
v -3 18 -4.5
v -3 19 -4.5
v 0 18 -4.5
v 0 19 -4.5
v 5 18 -4.5
v 5 19 -4.5
v 8 18 -4.5
v 8 19 -4.5
v 13 18 -4.5
v 13 19 -4.5
v 16 18 -4.5
v 16 19 -4.5
v -27 1 -5.5
v -27 20 -5.5
v -26 0 -5.5
v -26 1 -5.5
v -26 19 -5.5
v -9 19 -5.5
v -9 20 -5.5
v -8 18 -5.5
v -8 19 -5.5
v -7 19 -5.5
v -7 20 -5.5
v -3 18 -5.5
v -3 19 -5.5
v 0 18 -5.5
v 0 19 -5.5
v 5 18 -5.5
v 5 19 -5.5
v 8 18 -5.5
v 8 19 -5.5
v 13 18 -5.5
v 13 19 -5.5
v 16 18 -5.5
v 16 19 -5.5
v 24 0 -5.5
v 24 1 -5.5
v 25 0 -5.5
v 25 18 -5.5
v 26 0 -5.5
v 26 2 -5.5
v 26 4 -5.5
v 26 19 -5.5
v 26 20 -5.5
v 27 0 -5.5
v 27 2 -5.5
v 27 4 -5.5
v 27 19 -5.5
v 27 20 -5.5
v -26 0 5.5
v 24 0 5.5
v 25 0 5.5
v 26 0 5.5
v 27 0 5.5
v -26 0 -5.5
v 24 0 -5.5
v 25 0 -5.5
v 26 0 -5.5
v 27 0 -5.5
v -27 1 5.5
v -26 1 5.5
v -27 1 -5.5
v -26 1 -5.5
v 25 8 3.5
v 26 8 3.5
v 24 8 2.5
v 25 8 2.5
v 26 8 2.5
v 23 8 1.5
v 24 8 1.5
v 25 8 1.5
v 22 8 0.5
v 23 8 0.5
v 24 8 0.5
v 22 8 -0.5
v 23 8 -0.5
v 24 8 -0.5
v 23 8 -1.5
v 24 8 -1.5
v 25 8 -1.5
v 24 8 -2.5
v 25 8 -2.5
v 26 8 -2.5
v 25 8 -3.5
v 26 8 -3.5
v 26 13 3.5
v 27 13 3.5
v 25 13 2.5
v 26 13 2.5
v 27 13 2.5
v 24 13 1.5
v 25 13 1.5
v 26 13 1.5
v 23 13 0.5
v 24 13 0.5
v 25 13 0.5
v 23 13 -0.5
v 24 13 -0.5
v 25 13 -0.5
v 24 13 -1.5
v 25 13 -1.5
v 26 13 -1.5
v 25 13 -2.5
v 26 13 -2.5
v 27 13 -2.5
v 26 13 -3.5
v 27 13 -3.5
v 26 18 2.5
v 27 18 2.5
v 25 18 1.5
v 26 18 1.5
v 24 18 0.5
v 25 18 0.5
v 24 18 -0.5
v 25 18 -0.5
v 25 18 -1.5
v 26 18 -1.5
v 26 18 -2.5
v 27 18 -2.5
v -3 19 5.5
v 0 19 5.5
v 5 19 5.5
v 8 19 5.5
v 13 19 5.5
v 16 19 5.5
v -3 19 4.5
v 0 19 4.5
v 5 19 4.5
v 8 19 4.5
v 13 19 4.5
v 16 19 4.5
v -3 19 -4.5
v 0 19 -4.5
v 5 19 -4.5
v 8 19 -4.5
v 13 19 -4.5
v 16 19 -4.5
v -3 19 -5.5
v 0 19 -5.5
v 5 19 -5.5
v 8 19 -5.5
v 13 19 -5.5
v 16 19 -5.5
v 25 2 3.5
v 26 2 3.5
v 24 2 2.5
v 25 2 2.5
v 26 2 2.5
v 27 2 2.5
v 23 2 1.5
v 24 2 1.5
v 22 2 0.5
v 23 2 0.5
v 22 2 -0.5
v 23 2 -0.5
v 23 2 -1.5
v 24 2 -1.5
v 24 2 -2.5
v 25 2 -2.5
v 26 2 -2.5
v 27 2 -2.5
v 25 2 -3.5
v 26 2 -3.5
v 26 5 3.5
v 27 5 3.5
v 26 5 2.5
v 27 5 2.5
v 26 5 -2.5
v 27 5 -2.5
v 26 5 -3.5
v 27 5 -3.5
v -3 18 5.5
v 0 18 5.5
v 5 18 5.5
v 8 18 5.5
v 13 18 5.5
v 16 18 5.5
v -3 18 4.5
v 0 18 4.5
v 5 18 4.5
v 8 18 4.5
v 13 18 4.5
v 16 18 4.5
v -3 18 -4.5
v 0 18 -4.5
v 5 18 -4.5
v 8 18 -4.5
v 13 18 -4.5
v 16 18 -4.5
v -3 18 -5.5
v 0 18 -5.5
v 5 18 -5.5
v 8 18 -5.5
v 13 18 -5.5
v 16 18 -5.5
v -27 20 5.5
v -9 20 5.5
v -7 20 5.5
v 26 20 5.5
v 27 20 5.5
v -26 20 4.5
v -9 20 4.5
v -7 20 4.5
v 26 20 4.5
v -26 20 -4.5
v -9 20 -4.5
v -7 20 -4.5
v 26 20 -4.5
v -27 20 -5.5
v -9 20 -5.5
v -7 20 -5.5
v 26 20 -5.5
v 27 20 -5.5

# faces
f 3/5/1 2/5/1 1/5/1
f 4/5/1 2/5/1 3/5/1
f 5/5/1 3/5/1 1/5/1
f 5/6/1 4/6/1 3/6/1
f 6/5/1 2/5/1 4/5/1
f 6/6/1 4/6/1 5/6/1
f 7/5/1 5/5/1 1/5/1
f 7/5/1 6/5/1 5/5/1
f 8/5/1 2/5/1 6/5/1
f 8/5/1 6/5/1 7/5/1
f 11/3/1 10/3/1 9/3/1
f 12/3/1 10/3/1 11/3/1
f 17/5/1 14/5/1 13/5/1
f 18/5/1 14/5/1 17/5/1
f 19/5/1 16/5/1 15/5/1
f 20/5/1 16/5/1 19/5/1
f 25/5/1 22/5/1 21/5/1
f 26/5/1 22/5/1 25/5/1
f 27/5/1 24/5/1 23/5/1
f 28/5/1 24/5/1 27/5/1
f 33/5/1 30/5/1 29/5/1
f 34/5/1 30/5/1 33/5/1
f 35/5/1 32/5/1 31/5/1
f 36/5/1 32/5/1 35/5/1
f 41/6/1 38/6/1 37/6/1
f 42/6/1 38/6/1 41/6/1
f 43/6/1 40/6/1 39/6/1
f 44/6/1 40/6/1 43/6/1
f 45/5/2 46/5/2 49/5/2
f 49/5/2 46/5/2 50/5/2
f 47/5/2 48/5/2 51/5/2
f 51/5/2 48/5/2 52/5/2
f 53/5/2 54/5/2 57/5/2
f 57/5/2 54/5/2 58/5/2
f 55/5/2 56/5/2 59/5/2
f 59/5/2 56/5/2 60/5/2
f 61/5/2 62/5/2 65/5/2
f 65/5/2 62/5/2 66/5/2
f 63/5/2 64/5/2 67/5/2
f 67/5/2 64/5/2 68/5/2
f 69/6/2 70/6/2 71/6/2
f 71/6/2 70/6/2 72/6/2
f 73/6/2 74/6/2 77/6/2
f 77/6/2 74/6/2 78/6/2
f 75/6/2 76/6/2 79/6/2
f 79/6/2 76/6/2 80/6/2
f 78/6/2 79/6/2 81/6/2
f 81/6/2 79/6/2 82/6/2
f 83/6/2 84/6/2 87/6/2
f 87/6/2 84/6/2 88/6/2
f 85/6/2 86/6/2 91/6/2
f 91/6/2 86/6/2 92/6/2
f 88/6/2 89/6/2 93/6/2
f 93/6/2 89/6/2 94/6/2
f 90/6/2 91/6/2 95/6/2
f 95/6/2 91/6/2 96/6/2
f 94/6/2 95/6/2 97/6/2
f 97/6/2 95/6/2 98/6/2
f 99/6/2 100/6/2 103/6/2
f 103/6/2 100/6/2 104/6/2
f 101/6/2 102/6/2 107/6/2
f 107/6/2 102/6/2 108/6/2
f 104/6/2 105/6/2 109/6/2
f 109/6/2 105/6/2 110/6/2
f 106/6/2 107/6/2 113/6/2
f 113/6/2 107/6/2 114/6/2
f 110/6/2 111/6/2 115/6/2
f 115/6/2 111/6/2 116/6/2
f 112/6/2 113/6/2 117/6/2
f 117/6/2 113/6/2 118/6/2
f 119/6/2 120/6/2 123/6/2
f 123/6/2 120/6/2 124/6/2
f 121/6/2 122/6/2 127/6/2
f 127/6/2 122/6/2 128/6/2
f 124/6/2 125/6/2 129/6/2
f 129/6/2 125/6/2 130/6/2
f 126/6/2 127/6/2 131/6/2
f 131/6/2 127/6/2 132/6/2
f 133/4/2 134/4/2 135/4/2
f 135/4/2 134/4/2 136/4/2
f 136/4/2 134/4/2 137/4/2
f 137/4/2 134/4/2 138/4/2
f 138/4/2 134/4/2 139/4/2
f 139/4/2 134/4/2 140/4/2
f 135/2/2 136/2/2 141/2/2
f 136/6/2 137/6/2 142/6/2
f 141/2/2 136/2/2 142/2/2
f 139/2/2 140/2/2 143/2/2
f 138/6/2 139/6/2 143/6/2
f 143/2/2 140/2/2 144/2/2
f 142/6/2 137/6/2 145/6/2
f 141/5/2 142/5/2 145/5/2
f 145/6/2 137/6/2 146/6/2
f 138/6/2 143/6/2 147/6/2
f 143/5/2 144/5/2 148/5/2
f 147/6/2 143/6/2 148/6/2
f 141/5/2 145/5/2 149/5/2
f 148/5/2 144/5/2 152/5/2
f 149/6/2 150/6/2 153/6/2
f 141/5/2 149/5/2 153/5/2
f 153/6/2 150/6/2 154/6/2
f 151/6/2 152/6/2 155/6/2
f 152/5/2 144/5/2 156/5/2
f 155/6/2 152/6/2 156/6/2
f 153/5/2 154/5/2 157/5/2
f 154/5/2 155/5/2 157/5/2
f 155/5/2 156/5/2 157/5/2
f 141/5/2 153/5/2 157/5/2
f 156/5/2 144/5/2 158/5/2
f 157/5/2 156/5/2 158/5/2
f 157/2/2 158/2/2 159/2/2
f 159/2/2 158/2/2 160/2/2
f 164/5/3 162/5/3 161/5/3
f 165/5/3 162/5/3 164/5/3
f 166/6/3 165/6/3 164/6/3
f 166/5/3 162/5/3 165/5/3
f 167/5/3 162/5/3 166/5/3
f 168/6/3 166/6/3 164/6/3
f 169/2/3 167/2/3 166/2/3
f 169/6/3 166/6/3 168/6/3
f 170/5/3 169/5/3 168/5/3
f 170/2/3 167/2/3 169/2/3
f 171/2/3 167/2/3 170/2/3
f 172/6/3 168/6/3 164/6/3
f 172/5/3 170/5/3 168/5/3
f 173/4/3 171/4/3 170/4/3
f 173/5/3 170/5/3 172/5/3
f 174/6/3 172/6/3 164/6/3
f 175/4/3 171/4/3 173/4/3
f 176/6/3 174/6/3 164/6/3
f 176/5/3 175/5/3 174/5/3
f 177/4/3 171/4/3 175/4/3
f 177/5/3 175/5/3 176/5/3
f 178/6/3 176/6/3 164/6/3
f 179/4/3 171/4/3 177/4/3
f 180/6/3 178/6/3 164/6/3
f 180/5/3 179/5/3 178/5/3
f 181/4/3 171/4/3 179/4/3
f 181/5/3 179/5/3 180/5/3
f 182/6/3 180/6/3 164/6/3
f 183/4/3 171/4/3 181/4/3
f 184/3/3 164/3/3 163/3/3
f 185/6/3 182/6/3 164/6/3
f 185/3/3 164/3/3 184/3/3
f 186/6/3 185/6/3 184/6/3
f 187/5/3 183/5/3 182/5/3
f 187/6/3 185/6/3 186/6/3
f 187/6/3 182/6/3 185/6/3
f 188/5/3 187/5/3 186/5/3
f 189/5/3 187/5/3 188/5/3
f 190/5/3 187/5/3 189/5/3
f 191/4/3 171/4/3 183/4/3
f 191/5/3 187/5/3 190/5/3
f 191/5/3 183/5/3 187/5/3
f 192/4/3 171/4/3 191/4/3
f 193/4/3 189/4/3 188/4/3
f 194/2/3 190/2/3 189/2/3
f 194/4/3 189/4/3 193/4/3
f 195/5/3 191/5/3 190/5/3
f 195/2/3 190/2/3 194/2/3
f 196/2/3 192/2/3 191/2/3
f 196/5/3 191/5/3 195/5/3
f 197/2/3 192/2/3 196/2/3
f 200/6/3 199/6/3 198/6/3
f 201/6/3 199/6/3 200/6/3
f 204/6/3 203/6/3 202/6/3
f 205/6/3 203/6/3 204/6/3
f 208/6/3 207/6/3 206/6/3
f 209/6/3 207/6/3 208/6/3
f 212/6/3 211/6/3 210/6/3
f 213/6/3 211/6/3 212/6/3
f 215/6/3 214/6/3 213/6/3
f 216/6/3 214/6/3 215/6/3
f 218/6/3 217/6/3 216/6/3
f 219/6/3 217/6/3 218/6/3
f 222/6/3 221/6/3 220/6/3
f 223/6/3 221/6/3 222/6/3
f 225/6/3 224/6/3 223/6/3
f 226/6/3 224/6/3 225/6/3
f 228/6/3 227/6/3 226/6/3
f 229/6/3 227/6/3 228/6/3
f 232/6/3 231/6/3 230/6/3
f 233/6/3 231/6/3 232/6/3
f 237/6/3 234/6/3 233/6/3
f 238/6/3 234/6/3 237/6/3
f 240/6/3 236/6/3 235/6/3
f 241/6/3 236/6/3 240/6/3
f 242/6/3 239/6/3 238/6/3
f 243/6/3 239/6/3 242/6/3
f 246/5/3 245/5/3 244/5/3
f 247/5/3 245/5/3 246/5/3
f 248/5/3 245/5/3 247/5/3
f 250/5/3 249/5/3 248/5/3
f 250/5/3 248/5/3 247/5/3
f 251/5/3 249/5/3 250/5/3
f 252/5/4 253/5/4 254/5/4
f 254/5/4 253/5/4 255/5/4
f 255/5/4 253/5/4 256/5/4
f 256/5/4 257/5/4 258/5/4
f 255/5/4 256/5/4 258/5/4
f 258/5/4 257/5/4 259/5/4
f 260/6/4 261/6/4 262/6/4
f 262/6/4 261/6/4 263/6/4
f 263/6/4 264/6/4 267/6/4
f 267/6/4 264/6/4 268/6/4
f 265/6/4 266/6/4 270/6/4
f 270/6/4 266/6/4 271/6/4
f 268/6/4 269/6/4 272/6/4
f 272/6/4 269/6/4 273/6/4
f 274/6/4 275/6/4 276/6/4
f 276/6/4 275/6/4 277/6/4
f 277/6/4 278/6/4 279/6/4
f 279/6/4 278/6/4 280/6/4
f 280/6/4 281/6/4 282/6/4
f 282/6/4 281/6/4 283/6/4
f 284/6/4 285/6/4 286/6/4
f 286/6/4 285/6/4 287/6/4
f 287/6/4 288/6/4 289/6/4
f 289/6/4 288/6/4 290/6/4
f 290/6/4 291/6/4 292/6/4
f 292/6/4 291/6/4 293/6/4
f 294/6/4 295/6/4 296/6/4
f 296/6/4 295/6/4 297/6/4
f 298/6/4 299/6/4 300/6/4
f 300/6/4 299/6/4 301/6/4
f 302/6/4 303/6/4 304/6/4
f 304/6/4 303/6/4 305/6/4
f 306/5/4 307/5/4 309/5/4
f 309/5/4 307/5/4 310/5/4
f 309/6/4 310/6/4 311/6/4
f 310/5/4 307/5/4 311/5/4
f 311/5/4 307/5/4 312/5/4
f 309/6/4 311/6/4 313/6/4
f 311/2/4 312/2/4 314/2/4
f 313/6/4 311/6/4 314/6/4
f 313/5/4 314/5/4 315/5/4
f 314/2/4 312/2/4 315/2/4
f 315/2/4 312/2/4 316/2/4
f 309/6/4 313/6/4 317/6/4
f 313/5/4 315/5/4 317/5/4
f 315/4/4 316/4/4 318/4/4
f 317/5/4 315/5/4 318/5/4
f 309/6/4 317/6/4 319/6/4
f 318/4/4 316/4/4 320/4/4
f 309/6/4 319/6/4 321/6/4
f 319/5/4 320/5/4 321/5/4
f 320/4/4 316/4/4 322/4/4
f 321/5/4 320/5/4 322/5/4
f 309/6/4 321/6/4 323/6/4
f 322/4/4 316/4/4 324/4/4
f 309/6/4 323/6/4 325/6/4
f 323/5/4 324/5/4 325/5/4
f 324/4/4 316/4/4 326/4/4
f 325/5/4 324/5/4 326/5/4
f 309/6/4 325/6/4 327/6/4
f 326/4/4 316/4/4 328/4/4
f 308/3/4 309/3/4 329/3/4
f 309/6/4 327/6/4 330/6/4
f 329/3/4 309/3/4 330/3/4
f 329/6/4 330/6/4 331/6/4
f 327/5/4 328/5/4 332/5/4
f 331/6/4 330/6/4 332/6/4
f 330/6/4 327/6/4 332/6/4
f 331/5/4 332/5/4 333/5/4
f 333/5/4 332/5/4 334/5/4
f 334/5/4 332/5/4 335/5/4
f 328/4/4 316/4/4 336/4/4
f 335/5/4 332/5/4 336/5/4
f 332/5/4 328/5/4 336/5/4
f 336/4/4 316/4/4 337/4/4
f 333/4/4 334/4/4 338/4/4
f 334/2/4 335/2/4 339/2/4
f 338/4/4 334/4/4 339/4/4
f 335/5/4 336/5/4 340/5/4
f 339/2/4 335/2/4 340/2/4
f 336/2/4 337/2/4 341/2/4
f 340/5/4 336/5/4 341/5/4
f 341/2/4 337/2/4 342/2/4
f 348/3/5 344/3/5 343/3/5
f 349/6/5 345/6/5 344/6/5
f 349/3/5 344/3/5 348/3/5
f 350/5/5 346/5/5 345/5/5
f 350/6/5 345/6/5 349/6/5
f 351/4/5 347/4/5 346/4/5
f 351/5/5 346/5/5 350/5/5
f 352/4/5 347/4/5 351/4/5
f 355/5/5 354/5/5 353/5/5
f 356/5/5 354/5/5 355/5/5
f 360/6/5 358/6/5 357/6/5
f 361/6/5 358/6/5 360/6/5
f 363/6/5 360/6/5 359/6/5
f 364/6/5 360/6/5 363/6/5
f 366/6/5 363/6/5 362/6/5
f 367/6/5 363/6/5 366/6/5
f 368/6/5 366/6/5 365/6/5
f 369/6/5 366/6/5 368/6/5
f 371/6/5 370/6/5 369/6/5
f 372/6/5 370/6/5 371/6/5
f 374/6/5 373/6/5 372/6/5
f 375/6/5 373/6/5 374/6/5
f 377/6/5 376/6/5 375/6/5
f 378/6/5 376/6/5 377/6/5
f 382/6/5 380/6/5 379/6/5
f 383/6/5 380/6/5 382/6/5
f 385/6/5 382/6/5 381/6/5
f 386/6/5 382/6/5 385/6/5
f 388/6/5 385/6/5 384/6/5
f 389/6/5 385/6/5 388/6/5
f 390/6/5 388/6/5 387/6/5
f 391/6/5 388/6/5 390/6/5
f 393/6/5 392/6/5 391/6/5
f 394/6/5 392/6/5 393/6/5
f 396/6/5 395/6/5 394/6/5
f 397/6/5 395/6/5 396/6/5
f 399/6/5 398/6/5 397/6/5
f 400/6/5 398/6/5 399/6/5
f 404/5/5 402/5/5 401/5/5
f 406/5/5 404/5/5 403/5/5
f 407/5/5 406/5/5 405/5/5
f 408/5/5 404/5/5 406/5/5
f 408/5/5 406/5/5 407/5/5
f 409/5/5 404/5/5 408/5/5
f 410/5/5 402/5/5 404/5/5
f 410/5/5 404/5/5 409/5/5
f 411/5/5 402/5/5 410/5/5
f 412/5/5 402/5/5 411/5/5
f 419/4/5 414/4/5 413/4/5
f 420/4/5 414/4/5 419/4/5
f 421/4/5 416/4/5 415/4/5
f 422/4/5 416/4/5 421/4/5
f 423/4/5 418/4/5 417/4/5
f 424/4/5 418/4/5 423/4/5
f 431/4/5 426/4/5 425/4/5
f 432/4/5 426/4/5 431/4/5
f 433/4/5 428/4/5 427/4/5
f 434/4/5 428/4/5 433/4/5
f 435/4/5 430/4/5 429/4/5
f 436/4/5 430/4/5 435/4/5
f 437/5/6 438/5/6 440/5/6
f 440/5/6 438/5/6 441/5/6
f 439/6/6 440/6/6 444/6/6
f 443/6/6 444/6/6 446/6/6
f 445/6/6 446/6/6 447/6/6
f 446/6/6 444/6/6 448/6/6
f 447/6/6 446/6/6 448/6/6
f 448/6/6 444/6/6 449/6/6
f 444/6/6 440/6/6 450/6/6
f 449/6/6 444/6/6 450/6/6
f 450/6/6 440/6/6 451/6/6
f 440/5/6 441/5/6 452/5/6
f 451/6/6 440/6/6 452/6/6
f 441/4/6 442/4/6 453/4/6
f 452/5/6 441/5/6 453/5/6
f 453/4/6 442/4/6 454/4/6
f 452/5/6 453/5/6 455/5/6
f 455/5/6 453/5/6 456/5/6
f 457/6/6 458/6/6 459/6/6
f 459/6/6 458/6/6 460/6/6
f 461/6/6 462/6/6 463/6/6
f 463/6/6 462/6/6 464/6/6
f 465/6/6 466/6/6 471/6/6
f 471/6/6 466/6/6 472/6/6
f 467/6/6 468/6/6 473/6/6
f 473/6/6 468/6/6 474/6/6
f 469/6/6 470/6/6 475/6/6
f 475/6/6 470/6/6 476/6/6
f 477/6/6 478/6/6 483/6/6
f 483/6/6 478/6/6 484/6/6
f 479/6/6 480/6/6 485/6/6
f 485/6/6 480/6/6 486/6/6
f 481/6/6 482/6/6 487/6/6
f 487/6/6 482/6/6 488/6/6
f 489/5/6 490/5/6 494/5/6
f 490/2/6 491/2/6 495/2/6
f 494/5/6 490/5/6 495/5/6
f 491/4/6 492/4/6 496/4/6
f 495/2/6 491/2/6 496/2/6
f 492/2/6 493/2/6 497/2/6
f 496/4/6 492/4/6 497/4/6
f 495/6/6 496/6/6 498/6/6
f 489/5/6 494/5/6 498/5/6
f 496/6/6 497/6/6 498/6/6
f 494/6/6 495/6/6 498/6/6
f 498/6/6 497/6/6 499/6/6
f 499/6/6 497/6/6 500/6/6
f 497/2/6 493/2/6 501/2/6
f 500/6/6 497/6/6 501/6/6
f 489/5/6 498/5/6 502/5/6
f 498/5/6 499/5/6 502/5/6
f 499/2/6 500/2/6 503/2/6
f 502/5/6 499/5/6 503/5/6
f 500/4/6 501/4/6 504/4/6
f 503/2/6 500/2/6 504/2/6
f 501/2/6 493/2/6 505/2/6
f 504/4/6 501/4/6 505/4/6
f 505/2/6 493/2/6 506/2/6
